<svg width="10" height="17" viewBox="0 0 10 17" fill="none" xmlns="http://www.w3.org/2000/svg">
<path d="M4.68035 2.88882C5.57885 2.88882 6.30955 3.64312 6.30955 4.57064C6.30955 5.49536 5.57885 6.24966 4.68035 6.24966C3.78186 6.24966 3.05116 5.49536 3.05116 4.57064C3.05116 3.64312 3.78186 2.88882 4.68035 2.88882ZM4.68035 8.6299C6.85081 8.6299 8.61532 6.8084 8.61532 4.57064C8.61532 2.33008 6.85081 0.508575 4.68035 0.508575C2.5099 0.508575 0.74809 2.33008 0.74809 4.57064C0.74809 6.8084 2.5099 8.6299 4.68035 8.6299ZM6.27166 11.9432C7.07273 11.7533 7.84403 11.4264 8.55579 10.9654C9.09434 10.6162 9.25672 9.88149 8.91843 9.32554C8.57744 8.76679 7.86838 8.59917 7.32712 8.95118C5.71687 9.99603 3.64384 9.99603 2.03088 8.95118C1.49232 8.59917 0.780566 8.76679 0.442278 9.32554C0.103989 9.88149 0.266367 10.6162 0.804922 10.9654C1.51668 11.4264 2.28798 11.7533 3.08905 11.9432L0.888818 14.2117C0.43957 14.6755 0.43957 15.4298 0.888818 15.8936C1.11615 16.1254 1.40843 16.2428 1.70342 16.2428C1.9984 16.2428 2.29339 16.1254 2.52072 15.8936L4.68035 13.6642L6.84269 15.8936C7.29194 16.3601 8.01994 16.3601 8.47189 15.8936C8.92114 15.4298 8.92114 14.6755 8.47189 14.2117L6.27166 11.9432Z" fill="#030A1A"/>
</svg>
