<svg width="15" height="15" viewBox="0 0 15 15" fill="none" xmlns="http://www.w3.org/2000/svg">
<path d="M8.85089 0.555664C8.40551 0.555664 7.98758 0.781596 7.71951 1.10741C7.45144 1.43323 7.30368 1.8304 7.19603 2.24897C7.02506 2.92201 6.97229 3.66877 6.95963 4.34181C5.70793 4.42505 4.57444 4.79606 3.63303 5.36921C3.25098 5.04815 2.79083 4.86978 2.34968 4.87454C1.84731 4.87929 1.37028 5.09571 1.01566 5.54044C0.338103 6.38947 0.416202 7.77836 1.20141 8.60361C1.15286 8.85808 1.11698 9.11969 1.11698 9.38367C1.11698 12.1805 3.97498 14.4446 7.49999 14.4446C11.025 14.4446 13.883 12.1781 13.883 9.38367C13.883 9.11969 13.8471 8.85808 13.7986 8.60361C14.5838 7.77836 14.6619 6.38947 13.9843 5.54044C13.6297 5.09571 13.1527 4.87929 12.6503 4.87454C12.2091 4.86978 11.749 5.04815 11.3669 5.36921C10.4298 4.79843 9.3026 4.42743 8.05723 4.34181C8.07412 3.72109 8.11845 3.07659 8.24298 2.59143C8.32108 2.28702 8.41396 2.06584 8.51316 1.94455C8.61237 1.82326 8.68414 1.77332 8.85089 1.77332C9.21183 1.77332 9.25827 1.88985 9.47568 2.17286C9.58544 2.31556 9.71209 2.49393 9.91472 2.66754C10.1174 2.84115 10.4171 2.99098 10.7421 2.99098V1.77332C10.6514 1.77332 10.6345 1.77094 10.5733 1.71624C10.5121 1.66154 10.4276 1.5355 10.3031 1.37378C10.054 1.04796 9.57066 0.555664 8.85089 0.555664ZM12.3632 0.669819C11.5231 0.669819 10.8435 1.43561 10.8435 2.38215C10.8435 3.32869 11.5231 4.09448 12.3632 4.09448C13.2033 4.09448 13.883 3.32869 13.883 2.38215C13.883 1.43561 13.2033 0.669819 12.3632 0.669819ZM12.3632 1.27865C12.9036 1.27865 13.3426 1.77332 13.3426 2.38215C13.3426 2.99098 12.9036 3.48565 12.3632 3.48565C11.8229 3.48565 11.3838 2.99098 11.3838 2.38215C11.3838 1.77332 11.8229 1.27865 12.3632 1.27865ZM7.49999 5.29311C10.491 5.29311 13.0218 7.16953 13.0218 9.38367C13.0218 11.6002 10.491 13.4742 7.49999 13.4742C4.50901 13.4742 1.97818 11.6002 1.97818 9.38367C1.97818 7.16953 4.50901 5.29311 7.49999 5.29311ZM2.36656 5.84486C2.51643 5.84724 2.67263 5.88529 2.82249 5.95901C2.28002 6.42277 1.84942 6.95549 1.55602 7.55719C1.35339 7.0863 1.40827 6.49887 1.65734 6.18732C1.83887 5.95901 2.09005 5.84248 2.36656 5.84486ZM12.6334 5.84486C12.9099 5.84248 13.1611 5.95901 13.3426 6.18732C13.5917 6.49887 13.6466 7.0863 13.4439 7.55719C13.1506 6.95549 12.72 6.42277 12.1775 5.95901C12.3273 5.88529 12.4835 5.84724 12.6334 5.84486ZM5.33855 7.36693C4.79819 7.36693 4.35914 7.8616 4.35914 8.47043C4.35914 9.07926 4.79819 9.57393 5.33855 9.57393C5.87891 9.57393 6.31795 9.07926 6.31795 8.47043C6.31795 7.8616 5.87891 7.36693 5.33855 7.36693ZM9.66143 7.36693C9.12107 7.36693 8.68202 7.8616 8.68202 8.47043C8.68202 9.07926 9.12107 9.57393 9.66143 9.57393C10.2018 9.57393 10.6408 9.07926 10.6408 8.47043C10.6408 7.8616 10.2018 7.36693 9.66143 7.36693ZM4.81507 11.115C5.15913 11.9165 6.22296 12.6942 7.49999 12.6942C8.77701 12.6942 9.85773 11.9165 10.2018 11.115C9.577 11.5693 8.59126 11.8761 7.49999 11.8761C6.40871 11.8761 5.43986 11.5693 4.81507 11.115Z" fill="#030A1A"/>
</svg>
