<svg xmlns="http://www.w3.org/2000/svg" xmlns:xlink="http://www.w3.org/1999/xlink"><symbol id="footer-logo" viewBox="0 0 86 17"><g fill="none">
<path d="M4.888 16.182C4.03867 16.182 3.302 16.052 2.678 15.792C2.054 15.532 1.57733 15.0727 1.248 14.414C0.936 13.7553 0.78 12.828 0.78 11.632V10.748C1.196 10.748 1.62067 10.748 2.054 10.748C2.48733 10.748 2.912 10.748 3.328 10.748V11.84C3.328 12.568 3.39733 13.1313 3.536 13.53C3.67467 13.9287 3.86533 14.206 4.108 14.362C4.35067 14.5007 4.628 14.57 4.94 14.57C5.44267 14.57 5.84133 14.4053 6.136 14.076C6.448 13.7293 6.604 13.088 6.604 12.152C6.604 11.4587 6.5 10.9387 6.292 10.592C6.084 10.2453 5.75467 9.968 5.304 9.76C4.87067 9.53467 4.30733 9.28333 3.614 9.006C3.042 8.746 2.548 8.44267 2.132 8.096C1.716 7.74933 1.404 7.30733 1.196 6.77C0.988 6.23267 0.884 5.56533 0.884 4.768C0.884 3.79733 1.00533 3.00867 1.248 2.402C1.508 1.778 1.94133 1.32733 2.548 1.05C3.15467 0.755333 3.96933 0.608 4.992 0.608C6.30933 0.608 7.31467 0.911333 8.008 1.518C8.70133 2.10733 9.048 2.974 9.048 4.118V5.912C8.64933 5.912 8.242 5.912 7.826 5.912C7.42733 5.912 7.02 5.912 6.604 5.912V4.846C6.604 4.04867 6.474 3.47667 6.214 3.13C5.97133 2.766 5.57267 2.584 5.018 2.584C4.446 2.584 4.03 2.75733 3.77 3.104C3.52733 3.43333 3.406 3.962 3.406 4.69C3.406 5.314 3.52733 5.79933 3.77 6.146C4.01267 6.47533 4.32467 6.73533 4.706 6.926C5.10467 7.11667 5.512 7.29 5.928 7.446C6.708 7.74067 7.34067 8.044 7.826 8.356C8.31133 8.668 8.66667 9.084 8.892 9.604C9.11733 10.124 9.23 10.8607 9.23 11.814C9.23 12.906 9.048 13.7727 8.684 14.414C8.33733 15.038 7.83467 15.4887 7.176 15.766C6.53467 16.0433 5.772 16.182 4.888 16.182ZM15.8285 16.312C15.2392 16.312 14.6932 16.2687 14.1905 16.182C13.6878 16.0953 13.2545 15.922 12.8905 15.662C12.5265 15.402 12.2405 15.012 12.0325 14.492C11.8245 13.972 11.7205 13.27 11.7205 12.386V0.633999H14.2165V13.036C14.2165 13.504 14.2858 13.868 14.4245 14.128C14.5805 14.3707 14.7798 14.5353 15.0225 14.622C15.2652 14.7087 15.5338 14.752 15.8285 14.752C16.1232 14.752 16.3918 14.7087 16.6345 14.622C16.8772 14.5353 17.0678 14.3707 17.2065 14.128C17.3625 13.868 17.4405 13.504 17.4405 13.036V0.633999H19.9105V12.36C19.9105 13.244 19.8065 13.9547 19.5985 14.492C19.4078 15.012 19.1305 15.402 18.7665 15.662C18.4025 15.922 17.9692 16.0953 17.4665 16.182C16.9638 16.2687 16.4178 16.312 15.8285 16.312ZM22.9826 16V0.633999H28.1826C29.1532 0.633999 29.8986 0.850666 30.4186 1.284C30.9386 1.71733 31.1986 2.35867 31.1986 3.208V5.938C31.1986 6.59667 31.1119 7.212 30.9386 7.784C30.7826 8.33867 30.4706 8.78933 30.0026 9.136C29.5519 9.48267 28.8932 9.656 28.0266 9.656H25.5826V16H22.9826ZM25.5826 8.252H27.1686C27.6886 8.252 28.0786 8.05267 28.3386 7.654C28.5986 7.238 28.7286 6.57067 28.7286 5.652V4.274C28.7286 3.45933 28.6159 2.87867 28.3906 2.532C28.1652 2.18533 27.8532 2.012 27.4546 2.012H25.5826V8.252ZM33.6588 16V0.633999H40.5748V2.402H36.2588V7.056H39.8208V9.006H36.2588V14.284H40.5748V16H33.6588ZM42.9386 16V0.633999H48.2426C49.2133 0.633999 49.9586 0.850666 50.4786 1.284C51.0159 1.71733 51.2846 2.35867 51.2846 3.208V5.652C51.2846 6.50133 51.0506 7.19467 50.5826 7.732C50.1146 8.252 49.4213 8.538 48.5026 8.59C49.0919 8.642 49.5079 8.83267 49.7506 9.162C50.0106 9.49133 50.2446 10.0027 50.4526 10.696L51.9346 16H49.1786L47.9566 10.878C47.8353 10.4447 47.6966 10.0633 47.5406 9.734C47.3846 9.40467 47.1333 9.24 46.7866 9.24H45.5126V16H42.9386ZM45.5126 7.498H47.1766C47.7833 7.498 48.2079 7.342 48.4506 7.03C48.7106 6.718 48.8406 6.24133 48.8406 5.6V3.65C48.8406 3.078 48.7193 2.662 48.4766 2.402C48.2513 2.142 47.8959 2.012 47.4106 2.012H45.5126V7.498ZM57.4984 16.286C56.9091 16.286 56.3544 16.1907 55.8344 16C55.3144 15.8267 54.8897 15.4713 54.5604 14.934C54.2484 14.3793 54.0924 13.556 54.0924 12.464V3.884C54.0924 2.948 54.2657 2.23733 54.6124 1.752C54.9591 1.24933 55.4444 0.911333 56.0684 0.738C56.6924 0.547332 57.4117 0.451999 58.2264 0.451999C59.0411 0.451999 59.7604 0.547332 60.3844 0.738C61.0084 0.928666 61.4937 1.27533 61.8404 1.778C62.2044 2.26333 62.3864 2.96533 62.3864 3.884V5.964H59.9684V3.78C59.9684 3.26 59.8904 2.87 59.7344 2.61C59.5957 2.35 59.3964 2.17667 59.1364 2.09C58.8937 2.00333 58.5991 1.96 58.2524 1.96C57.9404 1.96 57.6544 2.00333 57.3944 2.09C57.1344 2.17667 56.9264 2.35 56.7704 2.61C56.6317 2.87 56.5624 3.26 56.5624 3.78V13.01C56.5624 13.53 56.6317 13.92 56.7704 14.18C56.9264 14.44 57.1344 14.6133 57.3944 14.7C57.6544 14.7867 57.9404 14.83 58.2524 14.83C58.7551 14.83 59.1624 14.6827 59.4744 14.388C59.8037 14.076 59.9684 13.6167 59.9684 13.01V9.89H58.4344V8.46H62.3864V16H60.5144L60.3844 14.7C60.3497 14.7693 60.3064 14.8473 60.2544 14.934C60.2024 15.0033 60.1591 15.064 60.1244 15.116C59.9164 15.428 59.6044 15.7053 59.1884 15.948C58.7897 16.1733 58.2264 16.286 57.4984 16.286ZM67.1025 16V9.396L64.2425 0.633999H66.7125L68.3245 5.886L68.4545 6.692L68.6105 5.886L70.3005 0.633999H72.6145L69.5985 9.526V16H67.1025ZM74.7134 16V0.633999H77.7814L80.3554 11.554L82.9554 0.633999H85.9974V16H83.7874V4.144L81.2134 16H79.4974L76.9234 4.144V16H74.7134Z" fill="white"/>
</g></symbol><symbol id="header-logo" viewBox="0 0 119 23"><g fill="none">
<path d="M5.768 22.252C4.592 22.252 3.572 22.072 2.708 21.712C1.844 21.352 1.184 20.716 0.728 19.804C0.296 18.892 0.08 17.608 0.08 15.952V14.728C0.656 14.728 1.244 14.728 1.844 14.728C2.444 14.728 3.032 14.728 3.608 14.728V16.24C3.608 17.248 3.704 18.028 3.896 18.58C4.088 19.132 4.352 19.516 4.688 19.732C5.024 19.924 5.408 20.02 5.84 20.02C6.536 20.02 7.088 19.792 7.496 19.336C7.928 18.856 8.144 17.968 8.144 16.672C8.144 15.712 8 14.992 7.712 14.512C7.424 14.032 6.968 13.648 6.344 13.36C5.744 13.048 4.964 12.7 4.004 12.316C3.212 11.956 2.528 11.536 1.952 11.056C1.376 10.576 0.944 9.964 0.656 9.22C0.368 8.476 0.224 7.552 0.224 6.448C0.224 5.104 0.392 4.012 0.728 3.172C1.088 2.308 1.688 1.684 2.528 1.3C3.368 0.891999 4.496 0.688 5.912 0.688C7.736 0.688 9.128 1.108 10.088 1.948C11.048 2.764 11.528 3.964 11.528 5.548V8.032C10.976 8.032 10.412 8.032 9.836 8.032C9.284 8.032 8.72 8.032 8.144 8.032V6.556C8.144 5.452 7.964 4.66 7.604 4.18C7.268 3.676 6.716 3.424 5.948 3.424C5.156 3.424 4.58 3.664 4.22 4.144C3.884 4.6 3.716 5.332 3.716 6.34C3.716 7.204 3.884 7.876 4.22 8.356C4.556 8.812 4.988 9.172 5.516 9.436C6.068 9.7 6.632 9.94 7.208 10.156C8.288 10.564 9.164 10.984 9.836 11.416C10.508 11.848 11 12.424 11.312 13.144C11.624 13.864 11.78 14.884 11.78 16.204C11.78 17.716 11.528 18.916 11.024 19.804C10.544 20.668 9.848 21.292 8.936 21.676C8.048 22.06 6.992 22.252 5.768 22.252ZM20.9164 22.432C20.1004 22.432 19.3444 22.372 18.6484 22.252C17.9524 22.132 17.3524 21.892 16.8484 21.532C16.3444 21.172 15.9484 20.632 15.6604 19.912C15.3724 19.192 15.2284 18.22 15.2284 16.996V0.723999H18.6844V17.896C18.6844 18.544 18.7804 19.048 18.9724 19.408C19.1884 19.744 19.4644 19.972 19.8004 20.092C20.1364 20.212 20.5084 20.272 20.9164 20.272C21.3244 20.272 21.6964 20.212 22.0324 20.092C22.3684 19.972 22.6324 19.744 22.8244 19.408C23.0404 19.048 23.1484 18.544 23.1484 17.896V0.723999H26.5684V16.96C26.5684 18.184 26.4244 19.168 26.1364 19.912C25.8724 20.632 25.4884 21.172 24.9844 21.532C24.4804 21.892 23.8804 22.132 23.1844 22.252C22.4884 22.372 21.7324 22.432 20.9164 22.432ZM30.822 22V0.723999H38.022C39.366 0.723999 40.398 1.024 41.118 1.624C41.838 2.224 42.198 3.112 42.198 4.288V8.068C42.198 8.98 42.078 9.832 41.838 10.624C41.622 11.392 41.19 12.016 40.542 12.496C39.918 12.976 39.006 13.216 37.806 13.216H34.422V22H30.822ZM34.422 11.272H36.618C37.338 11.272 37.878 10.996 38.238 10.444C38.598 9.868 38.778 8.944 38.778 7.672V5.764C38.778 4.636 38.622 3.832 38.31 3.352C37.998 2.872 37.566 2.632 37.014 2.632H34.422V11.272ZM45.6045 22V0.723999H55.1805V3.172H49.2045V9.616H54.1365V12.316H49.2045V19.624H55.1805V22H45.6045ZM58.4534 22V0.723999H65.7974C67.1414 0.723999 68.1734 1.024 68.8934 1.624C69.6374 2.224 70.0094 3.112 70.0094 4.288V7.672C70.0094 8.848 69.6854 9.808 69.0374 10.552C68.3894 11.272 67.4294 11.668 66.1574 11.74C66.9734 11.812 67.5494 12.076 67.8854 12.532C68.2454 12.988 68.5694 13.696 68.8574 14.656L70.9094 22H67.0934L65.4014 14.908C65.2334 14.308 65.0414 13.78 64.8254 13.324C64.6094 12.868 64.2614 12.64 63.7814 12.64H62.0174V22H58.4534ZM62.0174 10.228H64.3214C65.1614 10.228 65.7494 10.012 66.0854 9.58C66.4454 9.148 66.6254 8.488 66.6254 7.6V4.9C66.6254 4.108 66.4574 3.532 66.1214 3.172C65.8094 2.812 65.3174 2.632 64.6454 2.632H62.0174V10.228ZM78.6132 22.396C77.7972 22.396 77.0292 22.264 76.3092 22C75.5892 21.76 75.0012 21.268 74.5452 20.524C74.1132 19.756 73.8972 18.616 73.8972 17.104V5.224C73.8972 3.928 74.1372 2.944 74.6172 2.272C75.0972 1.576 75.7692 1.108 76.6332 0.868C77.4972 0.603999 78.4932 0.471998 79.6212 0.471998C80.7492 0.471998 81.7452 0.603999 82.6092 0.868C83.4732 1.132 84.1452 1.612 84.6252 2.308C85.1292 2.98 85.3812 3.952 85.3812 5.224V8.104H82.0332V5.08C82.0332 4.36 81.9252 3.82 81.7092 3.46C81.5172 3.1 81.2412 2.86 80.8812 2.74C80.5452 2.62 80.1372 2.56 79.6572 2.56C79.2252 2.56 78.8292 2.62 78.4692 2.74C78.1092 2.86 77.8212 3.1 77.6052 3.46C77.4132 3.82 77.3172 4.36 77.3172 5.08V17.86C77.3172 18.58 77.4132 19.12 77.6052 19.48C77.8212 19.84 78.1092 20.08 78.4692 20.2C78.8292 20.32 79.2252 20.38 79.6572 20.38C80.3532 20.38 80.9172 20.176 81.3492 19.768C81.8052 19.336 82.0332 18.7 82.0332 17.86V13.54H79.9092V11.56H85.3812V22H82.7892L82.6092 20.2C82.5612 20.296 82.5012 20.404 82.4292 20.524C82.3572 20.62 82.2972 20.704 82.2492 20.776C81.9612 21.208 81.5292 21.592 80.9532 21.928C80.4012 22.24 79.6212 22.396 78.6132 22.396ZM91.9112 22V12.856L87.9512 0.723999H91.3712L93.6032 7.996L93.7832 9.112L93.9992 7.996L96.3392 0.723999H99.5432L95.3672 13.036V22H91.9112ZM102.449 22V0.723999H106.697L110.261 15.844L113.861 0.723999H118.073V22H115.013V5.584L111.449 22H109.073L105.509 5.584V22H102.449Z" fill="white"/>
</g></symbol><symbol id="icon-close" viewBox="0 0 20 20"><g fill="none"><path d="M.293 18.291a1 1 0 101.414 1.414L10 11.413l8.292 8.292a1 1 0 101.414-1.414l-8.292-8.292 8.292-8.292A1 1 0 1018.291.293L9.999 8.585 1.707.293A1 1 0 10.293 1.707L8.585 10 .293 18.291z"/></g></symbol><symbol id="ok-logo" viewBox="0 0 10 17"><g fill="none">
<path d="M4.68035 2.88882C5.57885 2.88882 6.30955 3.64312 6.30955 4.57064C6.30955 5.49536 5.57885 6.24966 4.68035 6.24966C3.78186 6.24966 3.05116 5.49536 3.05116 4.57064C3.05116 3.64312 3.78186 2.88882 4.68035 2.88882ZM4.68035 8.6299C6.85081 8.6299 8.61532 6.8084 8.61532 4.57064C8.61532 2.33008 6.85081 0.508575 4.68035 0.508575C2.5099 0.508575 0.74809 2.33008 0.74809 4.57064C0.74809 6.8084 2.5099 8.6299 4.68035 8.6299ZM6.27166 11.9432C7.07273 11.7533 7.84403 11.4264 8.55579 10.9654C9.09434 10.6162 9.25672 9.88149 8.91843 9.32554C8.57744 8.76679 7.86838 8.59917 7.32712 8.95118C5.71687 9.99603 3.64384 9.99603 2.03088 8.95118C1.49232 8.59917 0.780566 8.76679 0.442278 9.32554C0.103989 9.88149 0.266367 10.6162 0.804922 10.9654C1.51668 11.4264 2.28798 11.7533 3.08905 11.9432L0.888818 14.2117C0.43957 14.6755 0.43957 15.4298 0.888818 15.8936C1.11615 16.1254 1.40843 16.2428 1.70342 16.2428C1.9984 16.2428 2.29339 16.1254 2.52072 15.8936L4.68035 13.6642L6.84269 15.8936C7.29194 16.3601 8.01994 16.3601 8.47189 15.8936C8.92114 15.4298 8.92114 14.6755 8.47189 14.2117L6.27166 11.9432Z" fill="#030A1A"/>
</g></symbol><symbol id="play" viewBox="0 0 13 15"><g fill="none">
<path d="M13 7.5L0.249999 14.8612L0.25 0.138783L13 7.5Z" fill="white"/>
</g></symbol><symbol id="reddit-logo" viewBox="0 0 15 15"><g fill="none">
<path d="M8.85089 0.555664C8.40551 0.555664 7.98758 0.781596 7.71951 1.10741C7.45144 1.43323 7.30368 1.8304 7.19603 2.24897C7.02506 2.92201 6.97229 3.66877 6.95963 4.34181C5.70793 4.42505 4.57444 4.79606 3.63303 5.36921C3.25098 5.04815 2.79083 4.86978 2.34968 4.87454C1.84731 4.87929 1.37028 5.09571 1.01566 5.54044C0.338103 6.38947 0.416202 7.77836 1.20141 8.60361C1.15286 8.85808 1.11698 9.11969 1.11698 9.38367C1.11698 12.1805 3.97498 14.4446 7.49999 14.4446C11.025 14.4446 13.883 12.1781 13.883 9.38367C13.883 9.11969 13.8471 8.85808 13.7986 8.60361C14.5838 7.77836 14.6619 6.38947 13.9843 5.54044C13.6297 5.09571 13.1527 4.87929 12.6503 4.87454C12.2091 4.86978 11.749 5.04815 11.3669 5.36921C10.4298 4.79843 9.3026 4.42743 8.05723 4.34181C8.07412 3.72109 8.11845 3.07659 8.24298 2.59143C8.32108 2.28702 8.41396 2.06584 8.51316 1.94455C8.61237 1.82326 8.68414 1.77332 8.85089 1.77332C9.21183 1.77332 9.25827 1.88985 9.47568 2.17286C9.58544 2.31556 9.71209 2.49393 9.91472 2.66754C10.1174 2.84115 10.4171 2.99098 10.7421 2.99098V1.77332C10.6514 1.77332 10.6345 1.77094 10.5733 1.71624C10.5121 1.66154 10.4276 1.5355 10.3031 1.37378C10.054 1.04796 9.57066 0.555664 8.85089 0.555664ZM12.3632 0.669819C11.5231 0.669819 10.8435 1.43561 10.8435 2.38215C10.8435 3.32869 11.5231 4.09448 12.3632 4.09448C13.2033 4.09448 13.883 3.32869 13.883 2.38215C13.883 1.43561 13.2033 0.669819 12.3632 0.669819ZM12.3632 1.27865C12.9036 1.27865 13.3426 1.77332 13.3426 2.38215C13.3426 2.99098 12.9036 3.48565 12.3632 3.48565C11.8229 3.48565 11.3838 2.99098 11.3838 2.38215C11.3838 1.77332 11.8229 1.27865 12.3632 1.27865ZM7.49999 5.29311C10.491 5.29311 13.0218 7.16953 13.0218 9.38367C13.0218 11.6002 10.491 13.4742 7.49999 13.4742C4.50901 13.4742 1.97818 11.6002 1.97818 9.38367C1.97818 7.16953 4.50901 5.29311 7.49999 5.29311ZM2.36656 5.84486C2.51643 5.84724 2.67263 5.88529 2.82249 5.95901C2.28002 6.42277 1.84942 6.95549 1.55602 7.55719C1.35339 7.0863 1.40827 6.49887 1.65734 6.18732C1.83887 5.95901 2.09005 5.84248 2.36656 5.84486ZM12.6334 5.84486C12.9099 5.84248 13.1611 5.95901 13.3426 6.18732C13.5917 6.49887 13.6466 7.0863 13.4439 7.55719C13.1506 6.95549 12.72 6.42277 12.1775 5.95901C12.3273 5.88529 12.4835 5.84724 12.6334 5.84486ZM5.33855 7.36693C4.79819 7.36693 4.35914 7.8616 4.35914 8.47043C4.35914 9.07926 4.79819 9.57393 5.33855 9.57393C5.87891 9.57393 6.31795 9.07926 6.31795 8.47043C6.31795 7.8616 5.87891 7.36693 5.33855 7.36693ZM9.66143 7.36693C9.12107 7.36693 8.68202 7.8616 8.68202 8.47043C8.68202 9.07926 9.12107 9.57393 9.66143 9.57393C10.2018 9.57393 10.6408 9.07926 10.6408 8.47043C10.6408 7.8616 10.2018 7.36693 9.66143 7.36693ZM4.81507 11.115C5.15913 11.9165 6.22296 12.6942 7.49999 12.6942C8.77701 12.6942 9.85773 11.9165 10.2018 11.115C9.577 11.5693 8.59126 11.8761 7.49999 11.8761C6.40871 11.8761 5.43986 11.5693 4.81507 11.115Z" fill="#030A1A"/>
</g></symbol><symbol id="slider-arrow-left" viewBox="0 0 18 34"><g fill="none">
<path d="M17 33L0.999999 17L17 0.999998" stroke="#AFAFAF"/>
</g></symbol><symbol id="slider-arrow-right" viewBox="0 0 18 34"><g fill="none">
<path d="M1 1L17 17L1 33" stroke="#AFAFAF"/>
</g></symbol><symbol id="vk-logo" viewBox="0 0 13 8"><g fill="none">
<path d="M7.72271 6.05176C8.16539 5.90867 8.73216 6.99638 9.33552 7.41267C9.78838 7.728 10.1352 7.65993 10.1352 7.65993L11.7434 7.63678C11.7434 7.63678 12.5838 7.58492 12.1865 6.9172C12.1536 6.86163 11.9536 6.4222 10.9895 5.51786C9.98147 4.57185 10.1181 4.72512 11.3317 3.08962C12.0712 2.09267 12.3671 1.48376 12.2745 1.22445C12.1856 0.974862 11.6424 1.03969 11.6424 1.03969L9.83052 1.05219C9.6541 1.05265 9.50453 1.10729 9.43646 1.29066C9.43507 1.29252 9.14891 2.06211 8.76735 2.7164C7.96118 4.10046 7.63936 4.17408 7.506 4.08749C7.19992 3.88699 7.27725 3.28317 7.27725 2.85392C7.27725 1.51246 7.47729 0.953099 6.88551 0.808627C6.68779 0.760469 6.54332 0.728982 6.03905 0.724351C5.39449 0.714627 4.84716 0.724351 4.53692 0.876695C4.33086 0.979956 4.17296 1.20639 4.26881 1.21935C4.3892 1.23556 4.65916 1.29344 4.80363 1.4907C4.98932 1.74631 4.98376 2.3191 4.98376 2.3191C4.98376 2.3191 5.0898 3.89857 4.73371 4.09444C4.48922 4.22872 4.1549 3.9546 3.43578 2.69788C3.06858 2.05516 2.79121 1.34484 2.79121 1.34484C2.79121 1.34484 2.7375 1.21287 2.64026 1.14063C2.52449 1.05497 2.36243 1.02765 2.36243 1.02765L0.642654 1.03876C0.642654 1.03876 0.384271 1.04617 0.289345 1.16008C0.20507 1.26103 0.2824 1.4694 0.2824 1.4694C0.2824 1.4694 1.62942 4.65566 3.15471 6.26059C4.55312 7.73402 6.14231 7.63632 6.14231 7.63632H6.86236C6.86236 7.63632 7.07953 7.61131 7.19066 7.49185C7.29439 7.38071 7.28976 7.17188 7.28976 7.17188C7.28976 7.17188 7.2754 6.1953 7.72271 6.05176Z" fill="#030A1A"/>
</g></symbol></svg>